<svg xmlns="http://www.w3.org/2000/svg" viewBox="0 0 256 256" width="256" height="256">
  <g fill="none" stroke="#26171d" stroke-linecap="butt">
    <path d="M 128.00 81.50 L 225.29 137.67 M 168.27 104.75 L 168.27 217.08 M 168.27 151.25 L 70.99 207.42 M 128.00 174.50 L 30.71 118.33 M 87.73 151.25 L 87.73 38.92 M 87.73 104.75 L 185.01 48.58" stroke-width="11.9"/>
    <path d="M 229.50 128.00 C 229.50 123.57 229.97 119.13 230.66 114.48 C 231.36 109.84 232.26 104.97 232.80 99.92 C 233.35 94.87 233.51 89.65 232.81 84.58 C 232.12 79.52 230.55 74.61 228.03 70.25 C 225.51 65.89 222.05 62.07 218.01 58.94 C 213.96 55.80 209.36 53.33 204.72 51.28 C 200.08 49.23 195.41 47.57 191.04 45.85 C 186.66 44.12 182.59 42.31 178.75 40.10 C 174.91 37.88 171.31 35.26 167.63 32.33 C 163.95 29.41 160.18 26.19 156.08 23.20 C 151.98 20.20 147.55 17.45 142.81 15.52 C 138.07 13.59 133.04 12.50 128.00 12.50 C 122.96 12.50 117.93 13.59 113.19 15.52 C 108.45 17.45 104.02 20.20 99.92 23.20 C 95.82 26.19 92.05 29.41 88.37 32.33 C 84.69 35.26 81.09 37.88 77.25 40.10 C 73.41 42.31 69.34 44.12 64.96 45.85 C 60.59 47.57 55.92 49.23 51.28 51.28 C 46.64 53.33 42.04 55.80 37.99 58.94 C 33.95 62.07 30.49 65.89 27.97 70.25 C 25.45 74.61 23.88 79.52 23.19 84.58 C 22.49 89.65 22.65 94.87 23.20 99.92 C 23.74 104.97 24.64 109.84 25.34 114.48 C 26.03 119.13 26.50 123.57 26.50 128.00 C 26.50 132.43 26.03 136.87 25.34 141.52 C 24.64 146.16 23.74 151.03 23.20 156.08 C 22.65 161.13 22.49 166.35 23.19 171.42 C 23.88 176.48 25.45 181.39 27.97 185.75 C 30.49 190.11 33.95 193.93 37.99 197.06 C 42.04 200.20 46.64 202.67 51.28 204.72 C 55.92 206.77 60.59 208.43 64.96 210.15 C 69.34 211.88 73.41 213.69 77.25 215.90 C 81.09 218.12 84.69 220.74 88.37 223.67 C 92.05 226.59 95.82 229.81 99.92 232.80 C 104.02 235.80 108.45 238.55 113.19 240.48 C 117.93 242.41 122.96 243.50 128.00 243.50 C 133.04 243.50 138.07 242.41 142.81 240.48 C 147.55 238.55 151.98 235.80 156.08 232.80 C 160.18 229.81 163.95 226.59 167.63 223.67 C 171.31 220.74 174.91 218.12 178.75 215.90 C 182.59 213.69 186.66 211.88 191.04 210.15 C 195.41 208.43 200.08 206.77 204.72 204.72 C 209.36 202.67 213.96 200.20 218.01 197.06 C 222.05 193.93 225.51 190.11 228.03 185.75 C 230.55 181.39 232.12 176.48 232.81 171.42 C 233.51 166.35 233.35 161.13 232.80 156.08 C 232.26 151.03 231.36 146.16 230.66 141.52 C 229.97 136.87 229.50 132.43 229.50 128.00 Z" stroke-width="17"/>
  </g>
</svg>
